<svg xmlns="http://www.w3.org/2000/svg" viewBox="0 0 26 24"><defs><style>.cls-1{fill:#484848;}</style></defs><title>PictoFilters</title><g id="Calque_2" data-name="Calque 2"><g id="Calque_1-2" data-name="Calque 1"><path class="cls-1" d="M24,4H14.65A6,6,0,0,0,3.35,4H2a2,2,0,0,0-1.41.59A2,2,0,0,0,0,6,2,2,0,0,0,2,8H3.35a6,6,0,0,0,11.3,0H24a2,2,0,0,0,2-2A2,2,0,0,0,24,4ZM13.59,8A5,5,0,0,1,4.41,8a5.08,5.08,0,0,1,0-4,5,5,0,0,1,9.18,0,5.08,5.08,0,0,1,0,4Z"/><path class="cls-1" d="M24,16H22.65a6,6,0,0,0-11.3,0H2a2,2,0,0,0-1.41.59A2,2,0,0,0,0,18a2,2,0,0,0,2,2h9.35a6,6,0,0,0,11.3,0H24a2,2,0,0,0,2-2A2,2,0,0,0,24,16Zm-2.41,4a5,5,0,0,1-9.18,0,5.08,5.08,0,0,1,0-4,5,5,0,0,1,9.18,0,5.08,5.08,0,0,1,0,4Z"/></g></g></svg>