<svg xmlns="http://www.w3.org/2000/svg" width="21.152" height="21.151" viewBox="0 0 21.152 21.151"><defs><style>.a{fill:#484848;}</style></defs><path class="a" d="M11.138.563A10.576,10.576,0,1,0,21.714,11.138,10.577,10.577,0,0,0,11.138.563Zm0,4.691A1.791,1.791,0,1,1,9.347,7.044,1.791,1.791,0,0,1,11.138,5.253Zm2.388,10.832a.512.512,0,0,1-.512.512H9.262a.512.512,0,0,1-.512-.512V15.061a.512.512,0,0,1,.512-.512h.512V11.82H9.262a.512.512,0,0,1-.512-.512V10.285a.512.512,0,0,1,.512-.512h2.729a.512.512,0,0,1,.512.512V14.55h.512a.512.512,0,0,1,.512.512Z" transform="translate(-0.563 -0.563)"/></svg>