<svg xmlns="http://www.w3.org/2000/svg" width="129.155" height="108.78" viewBox="0 0 129.155 108.78"><defs><style>.a{fill:#fdd89c;}.b{fill:#fff;}.c{fill:#f5f5ee;}.d{fill:#969696;}.e{fill:#ab8de5;}.f{fill:#2093a7;}.g{fill:#d8d8d8;}</style></defs><g transform="translate(0 0)"><g transform="translate(0 0)"><path class="a" d="M713.449,534.765c-4.07,18.5,16.79,12.973,27.518,18.2s7.8,12.2,4.061,21.31,14.545,37.554,57.34,26.172l23.126-39.662s-16.254-31.5-42.259-39.505C762.1,514.773,717.354,517.048,713.449,534.765Z" transform="translate(-712.93 -517.945)"/></g><g transform="translate(6.241 11.289)"><path class="b" d="M814.257,586.229a.487.487,0,0,1-.43-.263c-14.34-27.2-31.716-43.87-51.63-49.551a55.4,55.4,0,0,0-40.023,3.836.486.486,0,0,1-.488-.839,56.338,56.338,0,0,1,40.766-3.943c20.2,5.75,37.768,22.588,52.244,50.039a.489.489,0,0,1-.205.664A.577.577,0,0,1,814.257,586.229Z" transform="translate(-721.443 -533.343)"/></g><g transform="translate(37.689 20.579)"><path class="b" d="M764.832,549.735a.494.494,0,0,1-.459-.323.481.481,0,0,1,.293-.625c.693-.254,17.024-6.121,29.217.02a.487.487,0,1,1-.439.869c-11.822-5.955-28.28-.039-28.446.019A.374.374,0,0,1,764.832,549.735Z" transform="translate(-764.341 -546.016)"/></g><g transform="translate(80.365 11.27)"><path class="b" d="M824.911,560.257a.572.572,0,0,1-.215-.049.488.488,0,0,1-.224-.654c2.948-5.926-1.855-25.43-1.9-25.625a.489.489,0,0,1,.947-.244c.2.82,4.939,20.051,1.835,26.3A.483.483,0,0,1,824.911,560.257Z" transform="translate(-822.553 -533.318)"/></g><g transform="translate(42.287 42.822)"><path class="b" d="M821.445,587.343a.409.409,0,0,1-.254-.078c-14.223-8.834-27.03-10.279-35.269-9.928a43.817,43.817,0,0,0-14.623,2.9.487.487,0,0,1-.4-.889c.225-.107,23.126-10.113,50.81,7.088a.489.489,0,0,1,.157.673A.523.523,0,0,1,821.445,587.343Z" transform="translate(-770.613 -576.357)"/></g><g transform="translate(53.923 2.757)"><path class="b" d="M792.872,538.913a.506.506,0,0,1-.342-.137c-7.907-7.682-5.8-16.614-5.77-16.7a.482.482,0,0,1,.6-.351.494.494,0,0,1,.361.586c-.019.087-1.982,8.492,5.506,15.765a.492.492,0,0,1,.01.694A.588.588,0,0,1,792.872,538.913Z" transform="translate(-786.484 -521.706)"/></g></g><path class="c" d="M80.97,429.922C96.223,431.4,93.5,477.787,64.224,474.98,36.576,472.3,62.361,428.118,80.97,429.922Z" transform="translate(39.05 -392.516)"/><path class="d" d="M56.116,565.927H37.76a3,3,0,0,1-2.986-2.673l-2.317-20.808a3.01,3.01,0,0,1,2.986-3.366H58.338a3,3,0,0,1,2.986,3.327l-2.216,20.808A3.01,3.01,0,0,1,56.116,565.927Z" transform="translate(49.263 -457.147)"/><path class="e" d="M81.1,385.719c6.957,2.019,1.625,44.1-11.7,40.227C56.825,422.293,72.633,383.258,81.1,385.719Z" transform="translate(33.187 -362.374)"/><path class="a" d="M94.874,454.772c4.808,4.144-14.75,35.847-23.991,27.885C62.157,475.172,89,449.734,94.874,454.772Z" transform="translate(30.198 -405.489)"/><path class="f" d="M49.817,394.94c10.414,0,19.948,66.492,0,66.492C30.98,461.432,37.139,394.94,49.817,394.94Z" transform="translate(46.432 -382.307)"/><rect class="g" width="40.53" height="7.443" rx="3.721" transform="translate(75.942 77.433)"/></svg>