<svg xmlns="http://www.w3.org/2000/svg" width="300.86" height="285" viewBox="0 0 300.86 285"><defs><style>.a{fill:#f5f5ee;}.b,.c,.d{fill:none;stroke-linecap:round;stroke-miterlimit:10;}.b,.c{stroke:#000;}.b{stroke-width:4px;}.c{stroke-width:2px;}.d{stroke:#1f161e;}.e{fill:#1f161e;}.f{fill:#2093a7;}.g{fill:#0c535f;}.h{fill:#55b79d;}.i{fill:#f8cdba;}.j{fill:#fa9e9f;}.k{fill:#969696;}.l{fill:#d8d8d8;}.m{fill:#fff;}</style></defs><g transform="translate(0)"><circle class="a" cx="142.5" cy="142.5" r="142.5" transform="translate(15.86)"/><g transform="translate(0 27.347)"><g transform="translate(0)"><ellipse cx="34.203" cy="7.56" rx="34.203" ry="7.56" transform="translate(78.296 159.589)"/><line class="b" x1="19.212" y2="60.13" transform="translate(93.299 167.149)"/><line class="b" x2="19.212" y2="60.13" transform="translate(112.364 167.149)"/><line class="c" y1="13.733" x2="21.418" transform="translate(99.553 193.802)"/><line class="c" x2="21.423" y2="13.733" transform="translate(103.823 193.802)"/><path class="d" d="M393.738,356.86c-.087,2.666-.049,12-.488,16" transform="translate(-247.898 -254.799)"/><path class="e" d="M485.03,574.68c0,1.284-.753,9.387.748,10.135s18,1.2,18.752.45,1.2-2.325.542-2.775-7.045-1.723-7.912-2.325-2.065-3.794-1.626-5.485" transform="translate(-290.31 -354.571)"/><path class="f" d="M326.895,322.292l9.289-3.333c-.4-16.947-4.363-54.813-9.988-60.444-1.322-1.317-27.477-3.615-32.143-3.615-27.846,0-36.1,3.176-38.2,5.279-6.5,6.5-8.53,36.636-8.53,47.188s29.807,16.026,29.807,16.026l34.94,2.4s7.663.791,14.291,1.181C326.5,324.942,326.895,322.292,326.895,322.292Z" transform="translate(-180.687 -208.097)"/><path class="g" d="M445.22,395.512c2.542-.753,27.818-4.878,33.325.542s22.838,83.119,22.838,84.908H487.427l-18.838-40.544" transform="translate(-272.191 -271.491)"/><path class="h" d="M271.654,384.162c-.634,3.17-4.444,6.574-4.444,23.846,0,23.884,19.565,24.388,26.588,24.388,21.884,0,57.29-6.5,59.68-7.7,1.588,2.656,30.815,62.325,30.951,63.658h13.457s-8.341-89.27-23.391-99.394C369.606,385.712,282.878,382.233,271.654,384.162Z" transform="translate(-190.101 -267.052)"/><path class="i" d="M408.246,352.41c-3.534,0-6.449.84-14.448,2.412l-.417,15.3c7.587-3.057,9.349-7.305,11.549-7.305,5.5,0,8.368,2.834,11.614,2.834,2.265,0,6.341-1.778,6.341-4.195C422.884,356.4,412.625,352.41,408.246,352.41Z" transform="translate(-248.071 -252.761)"/><path class="e" d="M524.4,553.07c0,1.29-.753,9.387.748,10.14s18,1.2,18.751.45,1.2-2.325.542-2.775-7.045-1.729-7.912-2.33-2.065-3.794-1.626-5.485" transform="translate(-308.508 -344.673)"/><path class="i" d="M332.613,247.506c0,2.043-11.863,2.1-11.863,0V230.89h11.863Z" transform="translate(-214.437 -197.099)"/><path class="e" d="M328.749,237.4c-1.084,0-8,3.057-8,4.764V233.15C322.473,233.15,328.749,237.4,328.749,237.4Z" transform="translate(-214.427 -198.134)"/><ellipse class="i" cx="14.362" cy="14.362" rx="14.362" ry="14.362" transform="translate(102.226 11.251)"/><path class="e" d="M339.566,182.88c-1.778,2.824-5.5,4.119-9.522,4.119-3.431,0-8.427-1-11.983,1.03-1.924,1.084-4.13,3.55-4.574,8.487,0,.845-.959,4.124-.959,5.181,0,.721-.813,1.192-2.168,1.192a2.843,2.843,0,0,1-2.081-2.861c0-2,.8-2.71.8-4.406S307,192.294,307,187.579c0-6.791,4.336-10.975,7.4-10.975,2.8,0,3.674.65,4.027.927,0-6.173,8.129-8.991,11.354-8.991,3.685,0,5.419,1.512,5.419,3.436,0,3.067-1.463,5.674-2.206,6.26a9.1,9.1,0,0,1,6.124-2.336c4.222,0,5.642,2.775,5.642,4.672,0,4.124-4.948,7.945-6.791,7.945a19.691,19.691,0,0,0-1.626-2.813" transform="translate(-208.156 -168.54)"/><ellipse class="i" cx="3.062" cy="3.062" rx="3.062" ry="3.062" transform="translate(102.772 24.447)"/><ellipse class="j" cx="2.374" cy="1.236" rx="2.374" ry="1.236" transform="translate(128.589 25.775)"/><ellipse class="j" cx="2.374" cy="1.236" rx="2.374" ry="1.236" transform="translate(113.767 25.775)"/><path class="d" d="M355.8,213.65c.444.634,2.71,3.3.32,4.374" transform="translate(-230.601 -189.203)"/><path class="d" d="M345.535,226.025a4.028,4.028,0,0,1-2.4-1.685" transform="translate(-224.756 -194.099)"/><path class="d" d="M382.5,298.62c1.084,2.3,6.314,24.523,6.314,31.563" transform="translate(-242.952 -228.123)"/><path class="i" d="M247.32,348.41c0,24.979.233,32.225,10.259,32.225,23.109,0,58.043-18.968,64.27-18.968,5.5,0,8.373,2.84,11.619,2.84,2.26,0,6.335-1.783,6.335-4.195,0-5.067-10.259-9.056-14.633-9.056-9.847,0-49.144,9.5-50.1,9.5s-2.574-.417-2.574-2.032c0-2.932,1.919-9.706,2.168-10.3Z" transform="translate(-180.699 -250.929)"/><path class="d" d="M303,308.21c-.661,1.9-5.815,21.559-6.411,23.954" transform="translate(-203.26 -232.515)"/><rect class="k" width="5.55" height="114.677" rx="2.775" transform="matrix(-0.967, 0.254, -0.254, -0.967, 300, 229.004)"/><rect class="k" width="5.55" height="114.677" rx="2.775" transform="matrix(0.967, 0.254, -0.254, 0.967, 261.239, 118.098)"/><rect class="l" width="5.55" height="114.677" rx="2.775" transform="matrix(0.967, 0.254, -0.254, 0.967, 223.534, 118.098)"/><rect class="l" width="5.559" height="114.872" rx="2.779" transform="translate(261.231 227.088) rotate(165.548)"/><rect class="k" width="5.55" height="114.677" rx="2.775" transform="matrix(0.967, 0.254, -0.254, 0.967, 68.815, 118.101)"/><rect class="k" width="5.55" height="114.677" rx="2.775" transform="matrix(-0.967, 0.254, -0.254, -0.967, 106.513, 229.012)"/><rect class="l" width="271.096" height="8.211" rx="4.105" transform="translate(14.343 113.593)"/><rect class="l" width="5.55" height="114.677" rx="2.775" transform="matrix(0.967, 0.254, -0.254, 0.967, 29.158, 118.103)"/><rect class="l" width="5.55" height="114.677" rx="2.775" transform="matrix(-0.967, 0.254, -0.254, -0.967, 67.444, 229.012)"/><path d="M477.906,349.544H427.77l9.083-31.238a3.647,3.647,0,0,1,3.512-2.6h42.543a3.588,3.588,0,0,1,3.512,4.558Z" transform="translate(-264.13 -235.95)"/><ellipse class="m" cx="3.067" cy="3.067" rx="3.067" ry="3.067" transform="translate(191.85 93.606)"/><rect width="35.178" height="2.195" transform="translate(134.786 111.398)"/></g></g></g></svg>