<svg xmlns="http://www.w3.org/2000/svg" xmlns:xlink="http://www.w3.org/1999/xlink" width="308.794" height="285" viewBox="0 0 308.794 285"><defs><style>.a{fill:none;}.b{fill:#f5f5ee;}.c{fill:#fdd89c;}.d{fill:#fff;}.e{clip-path:url(#a);}.f{fill:#2093a7;}.g{fill:#ff4fc9;}</style><clipPath id="a"><ellipse class="a" cx="47.528" cy="47.528" rx="47.528" ry="47.528"/></clipPath></defs><g transform="translate(-910.857 -885.338)"><circle class="b" cx="142.5" cy="142.5" r="142.5" transform="translate(928.65 885.338)"/><g transform="translate(910.857 914.836)"><g transform="translate(206.88 200.028)"><path class="c" d="M1109.294,665.9h-95.671a.689.689,0,1,1,0-1.377h95.671a.689.689,0,0,1,0,1.377Z" transform="translate(-1012.935 -664.525)"/></g><g transform="translate(9.845 155.787)"><path class="d" d="M751.025,601.342s-24.626.321-22.707,16.473,28.952,8.641,32.946,12.157-2.635,6.419-4.958,5.914c-3.682-.8-6.721,9.356,3.36,9.715s87.94,0,87.94,0l-47.95-34.508Z" transform="translate(-727.518 -600.672)"/><path class="c" d="M786.524,646.153c-13,0-23.864-.037-27.2-.156-4.7-.166-6.4-2.388-7-3.7a6.063,6.063,0,0,1,.753-6.088,3.083,3.083,0,0,1,3.058-1.285c1.294.285,4.426-.8,5.206-2.351.138-.275.569-1.12-.854-2.369-1.074-.946-4.83-.955-8.805-.955-9.706-.01-22.993-.019-24.37-11.634a12.186,12.186,0,0,1,2.864-9.88c6.226-7.1,19.944-7.364,20.523-7.364h.073l48.841,9.8.119.083L849.4,646l-2.121.009C846.77,645.987,812.4,646.153,786.524,646.153Zm-30.953-9.926a1.972,1.972,0,0,0-1.423.835,4.7,4.7,0,0,0-.569,4.656c.817,1.791,2.819,2.791,5.794,2.893,9.017.321,73.229.064,85.79.009l-46.1-33.175-48.4-9.715c-1.065.028-13.837.5-19.439,6.9a10.869,10.869,0,0,0-2.525,8.805c1.24,10.4,13.819,10.413,23,10.422,4.61,0,8.246.009,9.715,1.294,1.928,1.7,1.561,3.251,1.175,4.031-1.12,2.222-4.931,3.471-6.73,3.076A1.543,1.543,0,0,0,755.571,636.227Z" transform="translate(-727.206 -600.37)"/></g><g transform="translate(0 98.948)"><path class="c" d="M713.418,533.767c-3.829,17.4,15.794,12.2,25.885,17.116s7.337,11.478,3.82,20.045,13.681,35.325,53.937,24.618l21.753-37.308s-15.289-29.631-39.751-37.16C759.183,514.961,717.091,517.1,713.418,533.767Z" transform="translate(-712.93 -517.945)"/></g><g transform="translate(99.308 87.752)"><path class="d" d="M866.133,551.369s-18.484-35.857,0-48.354c4.564-.881,7.319-.266,9,7.383s1.377,10.349,7.649,6.776,13.911,3.792,11.313,12.341Z" transform="translate(-857.244 -502.02)"/><path class="c" d="M865.6,552.106l-.385-.735a91.408,91.408,0,0,1-6.988-19.659c-3.085-14.076-.6-24.305,7.217-29.585l.119-.083.138-.027c5.013-.965,8.071.009,9.807,7.905q.275,1.267.5,2.342c.587,2.865,1.019,4.94,1.928,5.353.689.312,2.029-.119,4.215-1.368a7.719,7.719,0,0,1,8.87.881,11.305,11.305,0,0,1,3.444,12.268l-.065.211Zm.505-48.759c-16.133,11.1-2.507,41.477-.028,46.646l27.124-21.2a9.883,9.883,0,0,0-3.048-10.578,6.394,6.394,0,0,0-7.328-.762c-2.746,1.561-4.279,1.956-5.463,1.423-1.552-.7-1.983-2.819-2.709-6.326-.147-.717-.3-1.487-.487-2.323C872.523,502.768,870.017,502.6,866.106,503.347Z" transform="translate(-856.941 -501.71)"/></g><g transform="translate(234.243 122.51)"><path class="c" d="M1060.485,585.354s15.766-26.794,35.949-31.982,30.734,7.052,30.734,11.644-1.837,9.173-6.731,13.681-39.6,32.037-39.6,32.037l8.108,1.983s13.306-7.952,20.486-2.139-1.984,15.922-11.772,19.732h-45.039Z" transform="translate(-1052.616 -552.114)"/></g><g transform="translate(252.479 171.425)"><path class="d" d="M1100.688,624.045v5.271H1098.4l-3.9,22.836h-8.8L1082.25,629.1h-2.2v-5.059Z" transform="translate(-1079.367 -623.357)"/><path class="c" d="M1094.781,652.531h-9.972l-3.453-23.047h-2.295v-6.437h22.019v6.648h-2.4Zm-8.787-1.377h7.621l3.9-22.836h2.176v-3.893h-19.264v3.682h2.111Z" transform="translate(-1079.061 -623.047)"/></g><g transform="translate(253.159 172.113)"><path class="d" d="M1100.688,624.045v5.271H1098.4l-16.152-.211h-2.2v-5.059Z" transform="translate(-1080.046 -624.045)"/></g><g transform="translate(5.871 109.566)"><path class="d" d="M808.747,583.09a.458.458,0,0,1-.4-.247c-13.489-25.582-29.833-41.265-48.566-46.61a52.107,52.107,0,0,0-37.647,3.609.457.457,0,0,1-.459-.79,52.994,52.994,0,0,1,38.346-3.709c19,5.408,35.526,21.247,49.143,47.068a.46.46,0,0,1-.193.624A.541.541,0,0,1,808.747,583.09Z" transform="translate(-721.443 -533.343)"/></g><g transform="translate(35.453 118.305)"><path class="d" d="M764.8,549.514a.465.465,0,0,1-.432-.3.453.453,0,0,1,.276-.588c.652-.239,16.014-5.757,27.483.019a.458.458,0,0,1-.413.817c-11.12-5.6-26.6-.037-26.757.018A.351.351,0,0,1,764.8,549.514Z" transform="translate(-764.341 -546.016)"/></g><g transform="translate(75.595 109.549)"><path class="d" d="M824.771,558.658a.54.54,0,0,1-.2-.046.459.459,0,0,1-.211-.615c2.773-5.574-1.745-23.92-1.791-24.1a.46.46,0,0,1,.891-.23c.192.772,4.646,18.861,1.726,24.737A.454.454,0,0,1,824.771,558.658Z" transform="translate(-822.553 -533.318)"/></g><g transform="translate(39.777 139.228)"><path class="d" d="M818.427,586.69a.384.384,0,0,1-.238-.074c-13.379-8.31-25.426-9.669-33.176-9.338a41.22,41.22,0,0,0-13.755,2.727.458.458,0,0,1-.377-.836c.212-.1,21.753-9.513,47.794,6.667a.46.46,0,0,1,.148.633A.492.492,0,0,1,818.427,586.69Z" transform="translate(-770.612 -576.357)"/></g><g transform="translate(50.722 101.542)"><path class="d" d="M792.492,537.891a.476.476,0,0,1-.321-.129c-7.438-7.226-5.455-15.628-5.427-15.711a.453.453,0,0,1,.561-.33.465.465,0,0,1,.339.551c-.018.082-1.864,7.988,5.179,14.829a.463.463,0,0,1,.01.652A.553.553,0,0,1,792.492,537.891Z" transform="translate(-786.484 -521.706)"/></g><g transform="translate(149.462 51.696)"><path class="c" d="M1001.726,542.073l-46.031-28.787q-.069-.772-.083-1.487l-25.169-2.929s-1.735-12.479,0-19.632l2.278-26.124s2.066-11.524,16.28-13.158a22.2,22.2,0,0,1,3.2-.45,25.925,25.925,0,0,1,4.142,0c6.418.487,14.985,3.646,16.638,16.62,2.709,21.266-1.414,33.194,6.721,48.06S998.034,534.148,1001.726,542.073Z" transform="translate(-929.672 -449.423)"/></g><g transform="translate(171.987 51.696)"><path class="d" d="M978.138,472.278c-1.58-2.213-4.977-1.138-4.977-1.138.055-13.011-7.016-19.228-10.827-21.634a25.925,25.925,0,0,1,4.142,0C978.313,454.446,978.138,472.278,978.138,472.278Z" transform="translate(-962.335 -449.423)"/></g><g transform="translate(179.066 74.616)"><ellipse class="d" cx="5.069" cy="7.061" rx="5.069" ry="7.061"/></g><g transform="translate(142.961 55.268)"><g transform="translate(1.01 1.534)"><path class="d" d="M921.709,520.9l4.913-11.212a27.23,27.23,0,0,1,6.079-1.019,7.7,7.7,0,0,1,.826.046c.027,0,.055.009.083.009a.684.684,0,0,0,.468-.184A.7.7,0,0,0,934.3,508l-.055-1.13-.487-10.917a.691.691,0,0,0-.468-.624c-.339-.11-7.6-2.525-9.972-7.649a8.691,8.691,0,0,1,.074-7.172A69.272,69.272,0,0,1,927.4,472.9a25.179,25.179,0,0,0,2.415-4.719,8.352,8.352,0,0,1,4.72-5.748,35.753,35.753,0,0,0,8.485-5.6,16.5,16.5,0,0,0,5.528,9.715c4.913,4.435,4.738,17.851,4.674,20.081l-2.562,1.974a.665.665,0,0,0-.267.561l.322,19.2a.693.693,0,0,0,.386.605l1.552.772-.2,4.325a.63.63,0,0,0,.11.4l6.528,10.064Z" transform="translate(-921.709 -456.827)"/></g><path class="c" d="M942.135,457.432a17.6,17.6,0,0,0,5.509,8.934c4.031,3.645,4.591,14.554,4.454,19.218l-2.305,1.782a1.384,1.384,0,0,0-.532,1.111l.321,19.2a1.384,1.384,0,0,0,.762,1.212l1.148.569-.175,3.875a1.441,1.441,0,0,0,.22.817l5.748,8.87-35.012-3.406,4.4-10.036a25.28,25.28,0,0,1,5.583-.909,6,6,0,0,1,.744.037.952.952,0,0,0,.165.01,1.368,1.368,0,0,0,.936-.367,1.4,1.4,0,0,0,.441-1.074l-.055-1.093v-.064L934,495.226a1.421,1.421,0,0,0-.973-1.258c-.294-.092-7.281-2.415-9.522-7.263a7.931,7.931,0,0,1,.073-6.6,70.52,70.52,0,0,1,3.976-7.548,25.3,25.3,0,0,0,2.479-4.875,7.668,7.668,0,0,1,4.325-5.3,35.99,35.99,0,0,0,7.777-4.949m1.01-2.829a33.33,33.33,0,0,1-9.329,6.51,9.139,9.139,0,0,0-5.1,6.189c-.652,2.277-4.013,6.721-6.4,12.258-4.435,10.762,9.523,15.472,10.284,15.72l.028.009.487,10.89v.028l.055,1.13a7.2,7.2,0,0,0-.91-.046,29.087,29.087,0,0,0-6.583,1.129L920.244,520.8l39.741,3.866-7.3-11.266.22-4.775-1.956-.973-.321-19.2,2.819-2.176s.762-15.84-4.885-20.936-5.417-10.734-5.417-10.734Z" transform="translate(-920.244 -454.603)"/></g><g transform="translate(155.78 92.072)"><path class="c" d="M951.192,508.129c-2.249,1.992-6.749,5.482-11.221,6.179a.089.089,0,0,0-.073.083l-.349,8.6-.716-11.57a4.2,4.2,0,0,1,.074-.8c.826-.01,7.437.532,12.185-2.636A.085.085,0,0,1,951.192,508.129Z" transform="translate(-938.833 -507.974)"/></g><g transform="translate(200.682 8.108)"><ellipse class="d" cx="47.528" cy="47.528" rx="47.528" ry="47.528" transform="translate(0.689 0.689)"/><path class="c" d="M1052.163,482.646a48.216,48.216,0,1,1,48.217-48.216A48.27,48.27,0,0,1,1052.163,482.646Zm0-95.064A46.839,46.839,0,1,0,1099,434.421,46.888,46.888,0,0,0,1052.163,387.582Z" transform="translate(-1003.947 -386.214)"/></g><g transform="translate(201.37 8.797)"><g class="e"><g transform="translate(40.723 -1.255)"><path class="c" d="M1114.806,422.358s-1.249,1.938-2.121,1.625-1.313-3.305-1.313-3.305a6.3,6.3,0,0,0,2.057-4.986c-.248-3.058-.56-14.655-.56-14.655s-29.255-19.283-34.278-15.031l-3.5,3.718,3.5,2.847a2.967,2.967,0,0,1-2.764-.5c-1.359-1.056-4.362-1.185-3.774-.423s5.216,3.563,4.408,4.068-6.593-.6-5.666,2.461c0,0,2.874-.6,2.957,1.524s-2.544,1.91-2.544,1.91a8.743,8.743,0,0,1-3.223,4.113c-2.332,1.487-3.985,6.906-3.985,6.906s1.993-.046,1.865,1.864-1.524,5.252,1.91,9.366,7.116,8.347,10.174,3.9,8.007-1.442,8.09.257c0,0,3.765-1.2,4.9.734s-1.672,4.811-1.607,5.95.735,2.075,1.469,3.609.945,4.545.4,7.685-.138,6.62,1.864,8.962c0,0,.2,3.213-.937,5.013s.137,9.008.321,10.312c0,0,13.654-14.9,15.968-21.395s1.313-10.789,2.249-12.35C1111.629,434.956,1115.927,427.04,1114.806,422.358Zm-21.514-20.017a20.023,20.023,0,0,1-.689,2.185c-.5,1.368-4.555-1.745-4.555-1.745s-2.865.872-3.241-1.854-3.177-2.076-5.3-.45-2.681.56-2.681.56a8.3,8.3,0,0,1,3.434-5.8c3.186-2.185,9.788,3.241,10.973,3.866s2.185-1.561,2.185-1.561c.753-.064,2.121,1.368,2.121,2.681s5.115,1.745,5.115,1.745C1099.508,405.8,1093.292,402.34,1093.292,402.34Zm15.206,16.115a21.668,21.668,0,0,0-3.5-5.279c-1.791-1.827-4.049-5.7-3-6.749,1.138-1.139,4.426,4.554,4.912,6.179s2.231,2.231,3.654,4.591S1109.113,419.585,1108.5,418.455Z" transform="translate(-1064 -385.393)"/></g></g><g class="e"><g transform="translate(-2.927 36.736)"><path class="c" d="M1001.194,443.178l1.891,2.3s3.783-5.133,7.061-4.986,3.416,2.847,4,4.986,2.112,7.63,7.135,5.794,3.856,2.672,3.856,2.672,4.509-.5,4.436,4.435-4.3,2.258-3.132,6.988,1.892,7.492,1.019,9.173c0,0-2.984-1.6-3.278,1.24a6.309,6.309,0,0,1,1.387,2.258c.073.8.22,15.574.22,15.574s-12.809-5.721-17.905-16.978S999.376,449,1001.194,443.178Z" transform="translate(-1000.7 -440.484)"/></g></g></g><g transform="translate(220.203 77.866)"><path class="d" d="M1093.557,499.565l-9.761,13.911s-14.232,8.227-25.407,8.594l-.285,6.823-1.377,33.24h-23.378s2.956-32.12,13.4-50.549c0,0,1.478-2.085,6.465-2.911s10.164-1.662,10.164-1.662l11.808-18.006a1.405,1.405,0,0,1,1.781-.5h0a1.414,1.414,0,0,1,.7,1.8l-6.979,17.07,4.71-.367,15.849-17.346a1.285,1.285,0,0,1,1.6-.239h0a1.264,1.264,0,0,1,.423,1.781l-1.414,2.213.991.735a1.551,1.551,0,0,1,.413,2.038l-.5.836.468.367A1.589,1.589,0,0,1,1093.557,499.565Z" transform="translate(-1032.595 -487.683)"/><path class="c" d="M1057.048,562.511h-24.792l.073-.753c.028-.321,3.095-32.477,13.48-50.824.1-.156,1.744-2.387,6.951-3.251,4.288-.716,8.7-1.423,9.871-1.616l11.643-17.749a2.094,2.094,0,0,1,3.691,1.937l-6.556,16.042,3.324-.257,15.665-17.153a1.971,1.971,0,0,1,2.452-.367,1.971,1.971,0,0,1,.652,2.754l-1.065,1.672.477.358a2.229,2.229,0,0,1,.6,2.938l-.184.312a2.265,2.265,0,0,1,.459,3.094l-9.843,14.04-.129.073c-.578.331-13.984,8.016-25.086,8.659Zm-23.277-1.377h21.955l1.662-40.044.643-.018c10.312-.34,23.507-7.612,24.957-8.43l9.669-13.783a.906.906,0,0,0-.183-1.23l-.945-.734.8-1.359a.862.862,0,0,0-.229-1.138l-1.515-1.121,1.754-2.755a.6.6,0,0,0,.074-.45.587.587,0,0,0-.276-.368.6.6,0,0,0-.734.11l-16.032,17.547-6.1.478,7.4-18.108a.718.718,0,0,0-1.267-.661l-11.973,18.263-.3.046s-5.17.826-10.156,1.662c-4.582.762-6,2.617-6.023,2.636C1037.637,528.151,1034.3,556.194,1033.771,561.134Z" transform="translate(-1032.256 -487.372)"/></g><g transform="translate(238.972 111.602)"><path class="c" d="M1066.25,536.295l-.285,6.822-3.324-5.3a6.091,6.091,0,0,1-3.168-1.1Z" transform="translate(-1059.473 -536.295)"/></g><g transform="translate(268.344 82.92)"><line class="a" y1="14.067" x2="10.413" transform="translate(0.691 0.686)"/><path class="c" d="M1102.758,510.143a.721.721,0,0,1-.414-.138.7.7,0,0,1-.147-.964l10.413-14.058a.69.69,0,0,1,.965-.147.7.7,0,0,1,.147.964l-10.413,14.058A.677.677,0,0,1,1102.758,510.143Z" transform="translate(-1102.067 -494.701)"/></g><g transform="translate(270.83 86.521)"><line class="a" y1="13.195" x2="8.843" transform="translate(0.693 0.693)"/><path class="c" d="M1106.365,514.5a.679.679,0,0,1-.385-.119.694.694,0,0,1-.193-.955l8.842-13.2a.689.689,0,0,1,1.148.762l-8.843,13.2A.657.657,0,0,1,1106.365,514.5Z" transform="translate(-1105.673 -499.924)"/></g><g transform="translate(224.354 126.128)"><path class="c" d="M1052.865,557.36h-13.48l-1.111,4.867,14.591-.239Z" transform="translate(-1038.275 -557.36)"/></g><g transform="translate(237.916 122.272)"><ellipse class="c" cx="4.894" cy="6.207" rx="4.894" ry="6.207"/></g><g transform="translate(239.201 123.08)"><ellipse class="d" cx="3.379" cy="4.747" rx="3.379" ry="4.747" transform="translate(0.689 0.688)"/><path class="c" d="M1063.874,563.811c-2.24,0-4.068-2.433-4.068-5.436s1.827-5.435,4.068-5.435,4.068,2.433,4.068,5.435S1066.114,563.811,1063.874,563.811Zm0-9.485c-1.46,0-2.691,1.855-2.691,4.059s1.231,4.058,2.691,4.058,2.69-1.855,2.69-4.058S1065.325,554.326,1063.874,554.326Z" transform="translate(-1059.806 -552.94)"/></g><g transform="translate(175.486 115.56)"><path class="c" d="M1013.44,570.821h-37s-8.126-17.74-9.035-28.787Z" transform="translate(-967.409 -542.034)"/></g><g transform="translate(78.601 108.911)"><path class="f" d="M992.948,574.65l-.955,39.438s-2.3,9.5-9.439,10.11l-147.762-.469s-14.215-6.014-4.463-24.415,29.154-59.125,66.444-66.921c0,0,4.545,16.382,25.646,5.785l1.378.863c.909,11.047,9.035,28.787,9.035,28.787h37l-.808,6.822Z" transform="translate(-826.912 -532.393)"/></g><g transform="translate(211.838 183.922)"><path class="d" d="M1033.5,657.964h-7.677l-5.7-16.795,9.118,12.213S1029.9,655.328,1033.5,657.964Z" transform="translate(-1020.125 -641.169)"/></g><g transform="translate(218.054 150.213)"><path class="d" d="M1030.139,619.536s.945-20.348,2.781-27" transform="translate(-1029.45 -592.366)"/><path class="c" d="M1030.517,619.495l-1.377-.065c.036-.835.974-20.495,2.8-27.143l1.332.368C1031.482,599.146,1030.527,619.293,1030.517,619.495Z" transform="translate(-1029.14 -592.287)"/></g><g transform="translate(97.142 168.358)"><path class="c" d="M875.433,630.031c-4.848-1.432-12.781-3.315-14.775-2.654l-.432-1.3c1.525-.5,5.124.064,8.5.808L853.8,619.848l.588-1.249,21.542,10.156Z" transform="translate(-853.799 -618.599)"/></g><g transform="translate(113.037 193.985)"><path class="d" d="M972.544,662.8h-94.7v-3.315a2.728,2.728,0,0,1,2.727-2.727h88.968a3.013,3.013,0,0,1,3.011,3.012V662.8Z" transform="translate(-877.159 -656.073)"/><path class="c" d="M972.924,663.182H876.849v-4a3.421,3.421,0,0,1,3.416-3.416h88.968a3.707,3.707,0,0,1,3.7,3.7v3.719Zm-94.7-1.377h93.32v-2.342a2.326,2.326,0,0,0-2.323-2.323H880.256a2.04,2.04,0,0,0-2.039,2.039v2.626Z" transform="translate(-876.849 -655.763)"/></g><g transform="translate(113.027 131.188)"><path class="d" d="M964.653,628.5h-82.6a4.225,4.225,0,0,1-4.224-4.224V570.553a4.86,4.86,0,0,1,4.857-4.857h84.992a4.859,4.859,0,0,1,4.857,4.857v50.062A7.887,7.887,0,0,1,964.653,628.5Z" transform="translate(-877.145 -565.007)"/><path class="c" d="M964.343,628.882h-82.6a4.918,4.918,0,0,1-4.912-4.913V570.243a5.553,5.553,0,0,1,5.546-5.546h84.992a5.554,5.554,0,0,1,5.546,5.546v50.062A8.587,8.587,0,0,1,964.343,628.882Zm-81.962-62.8a4.171,4.171,0,0,0-4.168,4.169v53.726a3.543,3.543,0,0,0,3.535,3.535h82.6a7.2,7.2,0,0,0,7.19-7.19V570.262a4.178,4.178,0,0,0-4.169-4.169H882.381Z" transform="translate(-876.835 -564.697)"/></g><g transform="translate(156.634 158.845)"><ellipse class="c" cx="4.435" cy="4.435" rx="4.435" ry="4.435"/></g><g transform="translate(166.328 69.073)"><path class="c" d="M957.391,475.6c-2.489-1.947-3.627-.469-3.159,0S963.543,480.421,957.391,475.6Z" transform="translate(-954.129 -474.622)"/></g><g transform="translate(154.043 72.596)"><path class="d" d="M941.666,480.023s-2,3.811-3.36,3.893c-1.589.092-2.039.67.312,2.488" transform="translate(-936.522 -479.821)"/><path class="c" d="M938.125,486.681c-1.442-1.111-1.965-1.855-1.772-2.489.2-.661,1.074-.78,1.717-.817.753-.045,2.222-2.2,2.975-3.645l.808.422c-.349.671-2.195,4.05-3.737,4.142-.734.046-.89.183-.9.192h0c.019,0,.065.386,1.469,1.469Z" transform="translate(-936.314 -479.73)"/></g><g transform="translate(150.995 78.463)"><path class="d" d="M933.013,490.343s4.885,4.967,12.277,1.212c0,0-1.377,8.916-7.41,7.456S933.013,490.343,933.013,490.343Z" transform="translate(-932.214 -488.892)"/><path class="c" d="M938.855,499.2a6.354,6.354,0,0,1-1.46-.184c-5.271-1.276-5.821-6.73-5.381-9.439l.22-1.341.955.964c.193.192,4.647,4.554,11.478,1.074l1.194-.606-.2,1.332c-.036.211-.845,5.252-3.93,7.328A5.135,5.135,0,0,1,938.855,499.2Zm-5.564-8.172c-.028,1.974.477,5.693,4.435,6.648a3.889,3.889,0,0,0,3.232-.5c1.727-1.157,2.627-3.581,3.049-5.087A11.183,11.183,0,0,1,933.291,491.03Z" transform="translate(-931.894 -488.239)"/></g><g transform="translate(162.759 75.58)"><path class="c" d="M948.953,485.573s5.381-4.775,9,2.626C957.951,488.2,953.874,484.471,948.953,485.573Z" transform="translate(-948.953 -484.057)"/></g><g transform="translate(150.95 70.284)"><path class="c" d="M931.829,477.073s4.536-2.662,4.536,2.434C936.374,479.507,934.271,477.165,931.829,477.073Z" transform="translate(-931.829 -476.378)"/></g><g transform="translate(152.622 64.99)"><path class="c" d="M934.253,468.951s2.911-.808,4.444.478-1.8.679-2.645.4A11.769,11.769,0,0,1,934.253,468.951Z" transform="translate(-934.253 -468.701)"/></g><g transform="translate(101.973 0)"><g transform="translate(0 54.591)"><path class="g" d="M863.293,455.336a.46.46,0,0,1-.11-.009c-1.166-.193-1.845-.349-1.845-.349a.688.688,0,1,1,.312-1.341c.01,0,.652.147,1.763.339a.7.7,0,0,1,.57.79A.707.707,0,0,1,863.293,455.336Z" transform="translate(-860.806 -453.621)"/></g><g transform="translate(5.413)"><path class="f" d="M1020.249,500.005a.668.668,0,0,1-.229-.037.688.688,0,0,1-.413-.881c.385-1.065.771-2.222,1.147-3.434a.693.693,0,0,1,1.323.413c-.385,1.23-.772,2.406-1.166,3.489A.725.725,0,0,1,1020.249,500.005Zm2.167-6.96a.7.7,0,0,1-.671-.872c.3-1.12.6-2.3.882-3.517a.688.688,0,0,1,1.341.312c-.285,1.23-.588,2.424-.891,3.563A.684.684,0,0,1,1022.416,493.045Zm1.662-7.107a.713.713,0,0,1-.138-.009.688.688,0,0,1-.542-.808c.229-1.157.459-2.351.661-3.563a.69.69,0,0,1,1.359.239c-.212,1.231-.432,2.434-.67,3.609A.689.689,0,0,1,1024.078,485.938Zm1.23-7.19a.36.36,0,0,1-.1-.01.692.692,0,0,1-.588-.78c.166-1.176.321-2.378.468-3.6a.688.688,0,1,1,1.368.156q-.22,1.86-.468,3.636A.683.683,0,0,1,1025.308,478.749Zm.845-7.245h-.064a.689.689,0,0,1-.625-.744c.11-1.185.2-2.4.276-3.618a.69.69,0,1,1,1.377.092c-.073,1.239-.175,2.452-.275,3.654A.7.7,0,0,1,1026.153,471.5Zm.459-7.282h-.028a.688.688,0,0,1-.661-.716c.046-1.194.074-2.406.092-3.627a.686.686,0,0,1,.689-.679h.009a.676.676,0,0,1,.68.7c-.01,1.239-.046,2.46-.092,3.664A.694.694,0,0,1,1026.612,464.222Zm.083-7.3a.692.692,0,0,1-.689-.679c-.018-1.2-.055-2.406-.1-3.627a.687.687,0,0,1,.661-.716.711.711,0,0,1,.717.661c.055,1.231.083,2.452.1,3.664a.687.687,0,0,1-.679.7Zm-.3-7.29a.691.691,0,0,1-.688-.643c-.083-1.2-.184-2.406-.294-3.618a.692.692,0,0,1,1.378-.128c.119,1.23.211,2.442.294,3.654a.689.689,0,0,1-.643.735Zm-.7-7.263a.684.684,0,0,1-.679-.606c-.147-1.194-.312-2.387-.5-3.6a.687.687,0,0,1,1.359-.2c.183,1.221.349,2.425.5,3.636a.693.693,0,0,1-.6.772Zm-1.083-7.217a.688.688,0,0,1-.679-.57c-.212-1.184-.441-2.369-.7-3.562a.69.69,0,1,1,1.349-.285c.248,1.2.487,2.406.7,3.6a.688.688,0,0,1-.56.8A.214.214,0,0,1,1024.61,435.151Zm-147.982-3.673a.689.689,0,0,1-.028-1.378c1.221-.046,2.433-.138,3.581-.275a.677.677,0,0,1,.762.606.69.69,0,0,1-.606.762c-1.185.138-2.434.239-3.691.285Zm-3.646,0h-.028c-1.212-.046-2.452-.129-3.682-.248a.687.687,0,0,1,.137-1.368c1.2.119,2.415.2,3.591.239a.689.689,0,0,1-.019,1.378Zm10.881-.872a.688.688,0,0,1-.147-1.359,31.2,31.2,0,0,0,3.434-.964.691.691,0,1,1,.459,1.3,31.538,31.538,0,0,1-3.59,1.009C883.965,430.6,883.91,430.606,883.864,430.606Zm6.859-2.425a.71.71,0,0,1-.615-.367.685.685,0,0,1,.294-.927,20.76,20.76,0,0,0,2.984-1.874.689.689,0,1,1,.826,1.1,22.233,22.233,0,0,1-3.186,2A.638.638,0,0,1,890.723,428.181Zm132.391-.165a.7.7,0,0,1-.671-.523c-.294-1.194-.6-2.369-.918-3.5a.692.692,0,0,1,1.332-.377c.321,1.148.643,2.342.937,3.554a.694.694,0,0,1-.506.835C1023.224,428.007,1023.169,428.017,1023.114,428.017ZM896.5,423.792a.669.669,0,0,1-.459-.174.685.685,0,0,1-.046-.973,18.442,18.442,0,0,0,2.094-2.81.688.688,0,1,1,1.176.717,19.311,19.311,0,0,1-2.25,3.021A.708.708,0,0,1,896.5,423.792ZM1021.112,421a.689.689,0,0,1-.652-.468c-.385-1.166-.8-2.3-1.221-3.407a.689.689,0,0,1,1.286-.5c.431,1.111.845,2.277,1.239,3.462a.689.689,0,0,1-.441.872A.54.54,0,0,1,1021.112,421ZM947,419.147a5.157,5.157,0,0,1-3.4-1.2.691.691,0,0,1,.881-1.065,3.891,3.891,0,0,0,2.9.872.691.691,0,1,1,.11,1.377C947.323,419.137,947.158,419.147,947,419.147Zm3.875-1.157a.694.694,0,0,1-.6-.349.68.68,0,0,1,.256-.937,7.852,7.852,0,0,0,2.47-2.24.691.691,0,1,1,1.12.807,9.211,9.211,0,0,1-2.9,2.627A.859.859,0,0,1,950.876,417.989Zm-50.585-.377a.663.663,0,0,1-.266-.055.676.676,0,0,1-.358-.9c.45-1.047.89-2.176,1.322-3.36a.689.689,0,1,1,1.3.468c-.432,1.2-.891,2.36-1.35,3.434A.713.713,0,0,1,900.291,417.613Zm41.844-2.562a.677.677,0,0,1-.652-.478,12.633,12.633,0,0,1-.541-3.8.689.689,0,1,1,1.377,0,11.1,11.1,0,0,0,.477,3.388.684.684,0,0,1-.45.863A.878.878,0,0,1,942.135,415.051Zm76.36-.854a.7.7,0,0,1-.634-.413c-.5-1.111-1.019-2.2-1.552-3.26a.69.69,0,1,1,1.23-.624c.551,1.074,1.083,2.185,1.589,3.324a.686.686,0,0,1-.349.909A.668.668,0,0,1,1018.5,414.2Zm-63.349-1.9a.757.757,0,0,1-.2-.028.677.677,0,0,1-.45-.863,16.062,16.062,0,0,0,.643-3.425.691.691,0,1,1,1.377.11,17.7,17.7,0,0,1-.7,3.728A.721.721,0,0,1,955.146,412.3Zm-52.357-1.543a.756.756,0,0,1-.2-.028.677.677,0,0,1-.45-.863c.368-1.156.708-2.314,1.038-3.48a.692.692,0,1,1,1.332.377c-.33,1.175-.679,2.351-1.047,3.517A.717.717,0,0,1,902.789,410.754Zm39.227-2.929a.441.441,0,0,1-.147-.018.68.68,0,0,1-.532-.817,22.427,22.427,0,0,1,1.083-3.6.684.684,0,0,1,.891-.385.676.676,0,0,1,.385.89,21.5,21.5,0,0,0-1.019,3.379A.66.66,0,0,1,942.015,407.824Zm73.146-.11a.684.684,0,0,1-.6-.34c-.616-1.047-1.267-2.066-1.938-3.04a.69.69,0,0,1,1.139-.78c.68.992,1.35,2.047,1.983,3.113a.7.7,0,0,1-.239.945A.613.613,0,0,1,1015.162,407.715Zm-59.336-2.645a.69.69,0,0,1-.688-.634,26.965,26.965,0,0,0-.5-3.526.688.688,0,1,1,1.349-.266,31.664,31.664,0,0,1,.514,3.691.688.688,0,0,1-.634.735Zm-51.017-1.323a.626.626,0,0,1-.183-.028.7.7,0,0,1-.487-.845l.2-.753c.257-.927.506-1.854.762-2.773a.686.686,0,0,1,1.323.368c-.257.918-.5,1.836-.762,2.764l-.2.753A.667.667,0,0,1,904.809,403.747Zm106.23-2.038a.709.709,0,0,1-.541-.257c-.753-.945-1.543-1.864-2.342-2.727a.689.689,0,0,1,1.01-.937c.826.891,1.634,1.827,2.406,2.8a.686.686,0,0,1-.11.964A.67.67,0,0,1,1011.039,401.709Zm-66.379-.652a.628.628,0,0,1-.339-.092.682.682,0,0,1-.248-.937,25.617,25.617,0,0,1,2.1-3.094.687.687,0,0,1,1.084.845,25.732,25.732,0,0,0-1.993,2.938A.722.722,0,0,1,944.66,401.057Zm9.752-3.131a.7.7,0,0,1-.661-.487c-.349-1.129-.772-2.258-1.23-3.36a.687.687,0,1,1,1.267-.532c.478,1.138.909,2.314,1.276,3.489a.691.691,0,0,1-.449.863A.712.712,0,0,1,954.412,397.926Zm-47.629-1.212a.758.758,0,0,1-.2-.028.689.689,0,0,1-.458-.863c.394-1.3.762-2.434,1.139-3.5a.691.691,0,0,1,1.3.459c-.367,1.047-.735,2.167-1.121,3.444A.7.7,0,0,1,906.783,396.714Zm99.3-.339a.673.673,0,0,1-.468-.184c-.881-.807-1.809-1.579-2.746-2.3a.688.688,0,1,1,.836-1.092c.973.743,1.928,1.543,2.838,2.378a.686.686,0,0,1,.045.974A.666.666,0,0,1,1006.081,396.374Zm-56.94-1.047a.693.693,0,0,1-.486-1.185,30.171,30.171,0,0,1,2.837-2.424.689.689,0,1,1,.827,1.1,27.309,27.309,0,0,0-2.7,2.314A.706.706,0,0,1,949.141,395.328Zm51.155-3.389a.661.661,0,0,1-.368-.11c-1.01-.643-2.057-1.239-3.113-1.781a.7.7,0,0,1-.3-.927.689.689,0,0,1,.927-.3c1.092.56,2.176,1.175,3.223,1.836a.7.7,0,0,1,.211.955A.658.658,0,0,1,1000.3,391.939Zm-48.713-.725a.677.677,0,0,1-.605-.358c-.57-1.065-1.193-2.094-1.846-3.076a.689.689,0,0,1,1.148-.762c.679,1.01,1.322,2.085,1.919,3.187a.7.7,0,0,1-.276.936A.952.952,0,0,1,951.583,391.214Zm3.361-.266a.684.684,0,0,1-.349-1.276,33.114,33.114,0,0,1,3.324-1.68.691.691,0,0,1,.551,1.267,31.446,31.446,0,0,0-3.186,1.607A.716.716,0,0,1,954.944,390.947Zm-45.719-1.1a.726.726,0,0,1-.275-.055.684.684,0,0,1-.359-.909,36.526,36.526,0,0,1,1.635-3.342.688.688,0,0,1,1.2.67,34.927,34.927,0,0,0-1.57,3.214A.685.685,0,0,1,909.226,389.845Zm84.587-1.221a.84.84,0,0,1-.257-.046c-1.092-.441-2.231-.836-3.379-1.185a.686.686,0,0,1,.4-1.313c1.184.358,2.369.771,3.5,1.221a.684.684,0,0,1-.257,1.322Zm-32.2-.606a.687.687,0,0,1-.211-1.341c1.038-.33,2.121-.633,3.213-.881l.368-.083a.686.686,0,0,1,.294,1.341l-.349.083c-1.065.248-2.1.532-3.1.854A.911.911,0,0,1,961.611,388.018Zm25.233-1.487a.365.365,0,0,1-.138-.018c-1.157-.239-2.351-.432-3.544-.579a.685.685,0,0,1,.166-1.359c1.23.147,2.46.349,3.654.6a.679.679,0,0,1,.533.817A.687.687,0,0,1,986.844,386.53Zm-18.135-.165A.689.689,0,0,1,968.6,385c1.221-.2,2.452-.368,3.664-.487a.688.688,0,1,1,.138,1.368c-1.175.119-2.378.275-3.572.477A.535.535,0,0,1,968.708,386.366Zm10.9-.717h-.028c-1.184-.046-2.387-.055-3.6-.019a.656.656,0,0,1-.707-.67.688.688,0,0,1,.67-.707c1.249-.037,2.479-.037,3.7.019a.694.694,0,0,1,.661.716A.7.7,0,0,1,979.608,385.649Zm-32.092-.5a.7.7,0,0,1-.533-.248,29.957,29.957,0,0,0-2.433-2.607.689.689,0,0,1,.946-1,31.566,31.566,0,0,1,2.544,2.727.688.688,0,0,1-.092.974A.628.628,0,0,1,947.516,385.153Zm-34.7-1.634a.683.683,0,0,1-.542-1.1,20.528,20.528,0,0,1,2.534-2.783.689.689,0,1,1,.927,1.019,20.134,20.134,0,0,0-2.369,2.589A.678.678,0,0,1,912.816,383.519Zm29.42-3.37a.731.731,0,0,1-.4-.128,24.151,24.151,0,0,0-3-1.874.688.688,0,1,1,.634-1.221,25.309,25.309,0,0,1,3.177,1.983.688.688,0,0,1,.147.964A.653.653,0,0,1,942.236,380.149Zm-24.049-1.478a.684.684,0,0,1-.6-.34.7.7,0,0,1,.239-.945,19.679,19.679,0,0,1,3.415-1.589.691.691,0,1,1,.459,1.3,18.267,18.267,0,0,0-3.177,1.47A.569.569,0,0,1,918.187,378.671Zm17.612-1.864a.535.535,0,0,1-.211-.037,19.439,19.439,0,0,0-3.425-.79.686.686,0,0,1,.184-1.359,20.44,20.44,0,0,1,3.673.845.692.692,0,0,1,.441.872A.7.7,0,0,1,935.8,376.807Zm-10.8-.579a.689.689,0,0,1-.12-1.368,29.439,29.439,0,0,1,3.618-.4.723.723,0,0,1,.762.643.657.657,0,0,1-.6.725l-.1.01a28.718,28.718,0,0,0-3.443.385A.578.578,0,0,1,925,376.228Z" transform="translate(-868.655 -374.456)"/></g><g transform="translate(154.136 127.745)"><path class="g" d="M1085.01,562.743a.613.613,0,0,1-.3-.073.687.687,0,0,1-.312-.919c.248-.5.5-1.056.753-1.634a.691.691,0,1,1,1.267.551c-.266.606-.523,1.166-.781,1.689A.7.7,0,0,1,1085.01,562.743Z" transform="translate(-1084.326 -559.704)"/></g></g><g transform="translate(97.986 52.156)"><g transform="translate(0.79 0.808)"><path class="d" d="M856.169,451.573l2.443-.312-1.524,6.171Z" transform="translate(-856.169 -451.261)"/></g><path class="c" d="M857.347,451.705l-.468,1.873L856.6,451.8l.743-.092m1.818-1.616-4.142.523,1.552,9.944,2.589-10.468Z" transform="translate(-855.024 -450.089)"/></g><g transform="translate(66.143 41.339)"><g transform="translate(6.482 1.029)"><path class="d" d="M818.246,435.895l34.507,1.772-4.738,6.189Z" transform="translate(-818.246 -435.895)"/></g><path class="c" d="M821.821,436.451l26.675,1.377-3.664,4.784-23.011-6.161M808.846,434.4l36.518,9.78,5.822-7.594L808.846,434.4Z" transform="translate(-808.846 -434.403)"/></g><g transform="translate(66.143 41.339)"><g transform="translate(2.809 1.561)"><path class="d" d="M812.92,436.667l32.129,9.66-7.428,12.13Z" transform="translate(-812.92 -436.667)"/></g><path class="c" d="M814.474,437.534l28.254,8.494L836.2,456.7l-21.725-19.164m-5.628-3.131,27.666,24.407,8.319-13.59L808.846,434.4Z" transform="translate(-808.846 -434.403)"/></g></g></g></svg>