<?xml version="1.0" encoding="utf-8"?>
<!-- Generator: Adobe Illustrator 23.0.3, SVG Export Plug-In . SVG Version: 6.00 Build 0)  -->
<svg version="1.1" id="Calque_1" xmlns="http://www.w3.org/2000/svg" xmlns:xlink="http://www.w3.org/1999/xlink" x="0px" y="0px"
	 viewBox="0 0 795.1 581.4" style="enable-background:new 0 0 795.1 581.4;" xml:space="preserve">
<style type="text/css">
	.st0{fill:#F5F5EE;}
	.st1{fill:none;stroke:#000000;stroke-width:4;stroke-linecap:round;stroke-miterlimit:10;}
	.st2{fill:none;stroke:#000000;stroke-width:2;stroke-linecap:round;stroke-miterlimit:10;}
	.st3{fill:none;stroke:#1F161E;stroke-linecap:round;stroke-miterlimit:10;}
	.st4{fill:#1F161E;}
	.st5{fill:#2093A7;}
	.st6{fill:#0C535F;}
	.st7{fill:#55B79D;}
	.st8{fill:#F8CDBA;}
	.st9{fill:#FA9E9F;}
	.st10{fill:#969696;}
	.st11{fill:#D8D8D8;}
	.st12{fill:#FFFFFF;}
	.st13{fill:#FBDC8E;}
	.st14{fill:#FDD89C;}
	.st15{fill:#AB8DE5;}
</style>
<title>illus-computer</title>
<g>
	<g id="Calque_1-2">
		<path class="st0" d="M694.2,290.7c0,4.5-0.1,9.1-0.3,13.6c-1.2,27.5-6.3,53.9-14.7,78.8c-2.1,6.3-4.4,12.5-6.9,18.5
			c-7.9,19-17.7,37-29.2,53.8c-6.1,8.9-12.7,17.4-19.7,25.5c-0.5,0.6-1.1,1.2-1.6,1.9c-0.1,0.1-0.2,0.2-0.3,0.3
			c-5.4,6.1-11,11.9-16.8,17.5c-1.5,1.5-3,2.9-4.6,4.3c-0.8,0.8-1.7,1.5-2.5,2.3c-1.6,1.4-3.2,2.8-4.8,4.2c-4.1,3.5-8.3,7-12.7,10.3
			c-0.4,0.3-0.9,0.7-1.3,1c-48.7,36.9-109.4,58.7-175.2,58.7c-68.8,0-132.1-23.9-181.8-63.9c-7.7-6.1-15-12.7-22-19.5
			c-3.1-3.1-6.2-6.2-9.2-9.5c-2.6-2.8-5.1-5.6-7.6-8.5c-1.2-1.3-2.3-2.7-3.4-4.1c-0.5-0.6-1-1.2-1.5-1.9c-2.5-3-4.9-6.1-7.2-9.2
			c-15.6-20.8-28.4-43.7-38-68.2c-0.3-0.7-0.5-1.3-0.8-2c-5.3-13.9-9.6-28.4-12.8-43.2c-0.1-0.7-0.3-1.4-0.4-2.1
			c-0.3-1.5-0.6-2.9-0.9-4.4c-0.1-0.8-0.3-1.6-0.4-2.4c-0.1-0.3-0.1-0.6-0.2-1c-0.3-1.7-0.6-3.4-0.8-5.1c-1.5-9.3-2.5-18.8-3.1-28.4
			c-0.3-5.7-0.5-11.5-0.5-17.3C112.9,130.2,243,0,403.6,0c36.8,0,73.3,6.9,107.5,20.6l2,0.8c12.5,5.1,24.5,11,36.1,17.7
			c0.7,0.4,1.3,0.8,2,1.2c84.8,50.1,141.9,142,143.1,247.3C694.2,288.6,694.2,289.6,694.2,290.7z"/>
		<ellipse cx="410.9" cy="396.8" rx="69.8" ry="15.4"/>
		<line class="st1" x1="410.9" y1="396.8" x2="371.7" y2="519.4"/>
		<line class="st1" x1="410.6" y1="396.8" x2="449.8" y2="519.4"/>
		<line class="st2" x1="384.5" y1="479.1" x2="428.2" y2="451.1"/>
		<line class="st2" x1="393.2" y1="451.1" x2="436.9" y2="479.1"/>
		<path class="st3" d="M478.9,264c-0.2,5.4-0.1,24.5-1,32.6"/>
		<path class="st4" d="M578.6,504.8c0,2.6-1.5,19.1,1.5,20.7s36.7,2.5,38.2,0.9s2.5-4.7,1.1-5.7s-14.4-3.5-16.1-4.7
			s-4.2-7.7-3.3-11.2L578.6,504.8z"/>
		<path class="st5" d="M479.7,288.7l18.9-6.8c-0.8-34.6-8.9-111.8-20.4-123.3c-2.7-2.7-56-7.4-65.6-7.4c-56.8,0-73.6,6.5-77.9,10.8
			c-13.3,13.3-17.4,74.7-17.4,96.3s60.8,32.7,60.8,32.7l71.3,4.9c0,0,15.6,1.6,29.2,2.4C478.9,294.1,479.7,288.7,479.7,288.7z"/>
		<path class="st6" d="M534.4,308.8c5.2-1.5,56.7-10,68,1.1S649,479.4,649,483.1h-28.5L582,400.4L534.4,308.8z"/>
		<path class="st7" d="M347.8,294.7c-1.3,6.5-9.1,13.4-9.1,48.6c0,48.7,39.9,49.8,54.2,49.8c44.6,0,116.9-13.3,121.7-15.7
			c3.2,5.4,62.9,127.1,63.1,129.9h27.5c0,0-17-182.1-47.7-202.8C547.6,297.8,370.7,290.8,347.8,294.7z"/>
		<path class="st8" d="M508.2,259.1c-7.2,0-13.2,1.7-29.5,4.9l-0.9,31.2c15.5-6.2,19.1-14.9,23.6-14.9c11.2,0,17.1,5.8,23.7,5.8
			c4.6,0,12.9-3.6,12.9-8.5C538,267.2,517.1,259.1,508.2,259.1z"/>
		<path class="st4" d="M621.8,480.9c0,2.6-1.5,19.1,1.5,20.7s36.7,2.5,38.2,0.9s2.5-4.7,1.1-5.7s-14.4-3.5-16.1-4.8
			s-4.2-7.7-3.3-11.2H621.8z"/>
		<path class="st8" d="M422.5,158.6c0,4.2-24.2,4.3-24.2,0v-33.9h24.2V158.6z"/>
		<path class="st4" d="M414.6,135.9c-2.2,0-16.3,6.2-16.3,9.7v-18.4C401.8,127.2,414.6,135.9,414.6,135.9z"/>
		<circle class="st8" cx="419.2" cy="108" r="29.3"/>
		<path class="st4" d="M449.5,85c-3.6,5.8-11.2,8.4-19.4,8.4c-7,0-17.2-2-24.5,2.1c-3.9,2.2-8.4,7.2-9.3,17.3c0,1.7-2,8.4-2,10.6
			c0,1.5-1.6,2.4-4.4,2.4c-2.6-0.7-4.4-3.1-4.2-5.8c0-4.1,1.6-5.5,1.6-9s-4.2-6.8-4.2-16.4c0-13.9,8.8-22.4,15.1-22.4
			c5.7,0,7.5,1.3,8.2,1.9c0-12.6,16.6-18.3,23.2-18.3c7.5,0,11,3.1,11,7c0,6.2-3,11.6-4.5,12.8c3.4-3.1,7.9-4.8,12.5-4.8
			c8.6,0,11.5,5.7,11.5,9.5c0,8.4-10.1,16.2-13.9,16.2c-0.9-2-2.1-3.9-3.3-5.7L449.5,85z"/>
		<circle class="st8" cx="397.3" cy="111.9" r="6.2"/>
		<ellipse class="st9" cx="448.6" cy="110.9" rx="4.8" ry="2.5"/>
		<ellipse class="st9" cx="418.3" cy="110.9" rx="4.8" ry="2.5"/>
		<path class="st3" d="M436.8,105.7c0.9,1.3,5.5,6.7,0.6,8.9"/>
		<path class="st3" d="M427.8,120.9c-2-0.5-3.7-1.7-4.9-3.4"/>
		<path class="st3" d="M466.1,199.6c2.2,4.7,12.9,50,12.9,64.4"/>
		<path class="st8" d="M317.3,254.6c0,50.9,0.5,65.7,20.9,65.7c47.1,0,118.4-38.7,131.1-38.7c11.2,0,17.1,5.8,23.7,5.8
			c4.6,0,12.9-3.6,12.9-8.6c0-10.3-20.9-18.5-29.9-18.5c-20.1,0-100.2,19.4-102.2,19.4s-5.2-0.9-5.2-4.1c0-6,3.9-19.8,4.4-21
			L317.3,254.6z"/>
		<path class="st3" d="M384.9,210.2c-1.4,3.9-11.9,44-13.1,48.9"/>
		<path class="st10" d="M787.9,524.4L787.9,524.4c-3,0.8-6.1-1-6.9-4l-56.5-215.3c-0.8-3,1-6.1,4-6.9l0,0c3-0.8,6.1,1,6.9,4
			L792,517.5C792.8,520.5,791,523.6,787.9,524.4C787.9,524.4,787.9,524.4,787.9,524.4z"/>
		<path class="st10" d="M719.8,298.1L719.8,298.1c3,0.8,4.8,3.9,4,6.9l-56.5,215.3c-0.8,3-3.9,4.8-6.9,4l0,0c-3-0.8-4.8-3.9-4-6.9
			l56.5-215.3C713.7,299.1,716.8,297.4,719.8,298.1z"/>
		<path class="st11" d="M642.9,298.1L642.9,298.1c3,0.8,4.8,3.9,4,6.9l-56.5,215.3c-0.8,3-3.9,4.8-6.9,4l0,0c-3-0.8-4.8-3.9-4-6.9
			L636,302.2C636.8,299.2,639.9,297.4,642.9,298.1z"/>
		<path class="st11" d="M650.3,293.6L650.3,293.6c3-0.8,6.1,1,6.9,4.1l55.6,215.9c0.8,3-1,6.1-4.1,6.9h0c-3,0.8-6.1-1-6.9-4.1
			l-55.6-215.9C645.5,297.4,647.3,294.3,650.3,293.6z"/>
		<path class="st10" d="M327.3,298.1L327.3,298.1c3,0.8,4.8,3.9,4,6.9l-56.5,215.3c-0.8,3-3.9,4.8-6.9,4l0,0c-3-0.8-4.8-3.9-4-6.9
			l56.5-215.3C321.2,299.2,324.3,297.4,327.3,298.1z"/>
		<path class="st10" d="M393.2,524.4L393.2,524.4c-3,0.8-6.1-1-6.9-4l-56.5-215.3c-0.8-3,1-6.1,4-6.9l0,0c3-0.8,6.1,1,6.9,4
			l56.5,215.3C398,520.5,396.2,523.6,393.2,524.4C393.2,524.4,393.2,524.4,393.2,524.4z"/>
		<path class="st11" d="M219,287.5h536.3c4.6,0,8.4,3.7,8.4,8.4v0c0,4.6-3.7,8.4-8.4,8.4H219c-4.6,0-8.4-3.7-8.4-8.4v0
			C210.7,291.3,214.4,287.5,219,287.5z"/>
		<path class="st11" d="M246.4,298.1L246.4,298.1c3,0.8,4.8,3.9,4,6.9l-56.5,215.3c-0.8,3-3.9,4.8-6.9,4l0,0c-3-0.8-4.8-3.9-4-6.9
			l56.5-215.3C240.3,299.2,243.4,297.4,246.4,298.1z"/>
		<path class="st11" d="M313.5,524.4L313.5,524.4c-3,0.8-6.1-1-6.9-4l-56.5-215.3c-0.8-3,1-6.1,4-6.9l0,0c3-0.8,6.1,1,6.9,4
			l56.5,215.3C318.3,520.5,316.5,523.6,313.5,524.4z"/>
		<path d="M617.5,287.5H515.2l18.5-63.7c1-3.2,3.9-5.3,7.2-5.3h86.8c4-0.1,7.4,3.2,7.4,7.2c0,0.7-0.1,1.4-0.3,2.1L617.5,287.5z"/>
		<circle class="st12" cx="579" cy="253" r="6.3"/>
		<rect x="456.4" y="283" width="71.8" height="4.5"/>
		<path d="M550.2,101.5L550.2,101.5c3.4,0,6.2,2.8,6.2,6.2v21.4c0,3.4-2.8,6.2-6.2,6.2h0c-3.4,0-6.2-2.8-6.2-6.2v-21.4
			C544,104.3,546.8,101.5,550.2,101.5z"/>
		<circle class="st13" cx="550.2" cy="158.9" r="12.5"/>
		<path class="st5" d="M550.2,121.4c-20.7,0-37.5,16.8-37.5,37.6c0,0,0,0,0,0h75.1C587.8,138.2,571,121.4,550.2,121.4
			C550.2,121.4,550.2,121.4,550.2,121.4z"/>
		<path d="M551.2,40.2v68.4c0,0.6-0.4,1-1,1c-0.5,0-1-0.4-1-1V39.1C549.8,39.5,550.5,39.8,551.2,40.2z"/>
		<path class="st14" d="M1.1,341.2c-8.3,37.7,34.2,26.5,56.1,37.1s15.9,24.9,8.3,43.5s29.7,76.6,117,53.4l47.2-80.9
			c0,0-33.2-64.2-86.2-80.6C100.3,300.4,9,305,1.1,341.2z"/>
		<path class="st12" d="M202.1,437.8c-0.4,0-0.7-0.2-0.9-0.5c-29.3-55.5-64.7-89.5-105.3-101.1c-27.2-7.7-56.4-4.9-81.7,7.8
			c-0.5,0.2-1.1,0-1.3-0.5c-0.2-0.4,0-0.9,0.3-1.2c25.7-13,55.4-15.9,83.2-8c41.2,11.7,77,46.1,106.6,102.1c0.3,0.5,0.1,1.1-0.4,1.4
			l0,0C202.4,437.8,202.2,437.8,202.1,437.8z"/>
		<path class="st12" d="M77.9,356.4c-0.4,0-0.8-0.3-0.9-0.7c-0.2-0.5,0.1-1.1,0.6-1.3l0,0c1.4-0.5,34.7-12.5,59.6,0
			c0.5,0.2,0.8,0.7,0.7,1.2c-0.2,0.5-0.7,0.8-1.2,0.7c-0.1,0-0.2-0.1-0.3-0.1h-0.1c-24.1-12.1-57.7-0.1-58,0
			C78.1,356.4,78,356.4,77.9,356.4z"/>
		<path class="st12" d="M168.8,384.8c-0.2,0-0.3,0-0.4-0.1c-0.5-0.2-0.7-0.8-0.5-1.3l0,0c6-12.1-3.8-51.9-3.9-52.3
			c-0.1-0.5,0.2-1.1,0.7-1.2c0.5-0.1,1.1,0.2,1.2,0.7c0.4,1.7,10.1,40.9,3.7,53.6C169.5,384.6,169.1,384.8,168.8,384.8z"/>
		<path class="st12" d="M190,416.6c-0.2,0-0.4-0.1-0.5-0.2c-29-18-55.1-21-71.9-20.2c-10.2,0.3-20.3,2.2-29.8,5.9
			c-0.5,0.3-1.1,0.1-1.4-0.3c-0.3-0.5-0.1-1.1,0.3-1.4c0.1,0,0.2-0.1,0.2-0.1c0.4-0.2,47.2-20.6,103.6,14.5c0.5,0.3,0.6,0.9,0.3,1.4
			C190.7,416.4,190.3,416.6,190,416.6z"/>
		<path class="st12" d="M123,347.6c-0.3,0-0.5-0.1-0.7-0.3c-16.1-15.7-11.8-33.9-11.8-34.1c0.1-0.5,0.7-0.8,1.2-0.7l0,0
			c0.5,0.1,0.9,0.7,0.7,1.2c0,0.2-4,17.3,11.2,32.2c0.4,0.4,0.4,1,0,1.4c0,0,0,0,0,0C123.5,347.5,123.3,347.6,123,347.6z"/>
		<path class="st0" d="M244.8,383.2c31.1,3,25.6,97.6-34.2,91.9C154.3,469.6,206.9,379.5,244.8,383.2z"/>
		<path class="st10" d="M215,528.8h-37.5c-3.1,0-5.8-2.3-6.1-5.5l-4.7-42.4c-0.4-3.4,2-6.4,5.4-6.8c0,0,0,0,0,0c0.2,0,0.5,0,0.7,0
			h46.7c3.4,0,6.1,2.7,6.1,6.1c0,0,0,0,0,0c0,0.2,0,0.5,0,0.7l-4.5,42.4C220.8,526.4,218.1,528.8,215,528.8z"/>
		<path class="st15" d="M233.1,354.5c14.2,4.1,3.3,90-23.9,82C183.6,429.1,215.9,349.5,233.1,354.5z"/>
		<path class="st14" d="M255.1,407.4c9.8,8.5-30.1,73.1-48.9,56.9C188.4,449,243.1,397.1,255.1,407.4z"/>
		<path class="st5" d="M196.3,332.6c21.2,0,40.7,135.6,0,135.6C157.9,468.3,170.5,332.6,196.3,332.6z"/>
		<path class="st11" d="M162.5,464.8H230c4.2,0,7.6,3.4,7.6,7.6l0,0c0,4.2-3.4,7.6-7.6,7.6h-67.5c-4.2,0-7.6-3.4-7.6-7.6l0,0
			C154.9,468.2,158.3,464.8,162.5,464.8z"/>
	</g>
</g>
</svg>
