<svg xmlns="http://www.w3.org/2000/svg" viewBox="0 0 795.14 581.37"><title>illus-computer</title><g id="Calque_2" data-name="Calque 2"><g id="Calque_1-2" data-name="Calque 1"><path d="M795.14,290.69c0,160.54-130.14,290.68-290.69,290.68S213.77,451.23,213.77,290.69,343.91,0,504.45,0A290,290,0,0,1,612,20.56l2,.81C720.27,64.63,795.14,168.92,795.14,290.69Z" style="fill:#f5f5ee"/><ellipse cx="410.9" cy="396.76" rx="69.77" ry="15.42"/><line x1="410.93" y1="396.76" x2="371.74" y2="519.41" style="fill:none;stroke:#000;stroke-linecap:round;stroke-miterlimit:10;stroke-width:4px"/><line x1="410.63" y1="396.76" x2="449.82" y2="519.41" style="fill:none;stroke:#000;stroke-linecap:round;stroke-miterlimit:10;stroke-width:4px"/><line x1="384.49" y1="479.14" x2="428.19" y2="451.12" style="fill:none;stroke:#000;stroke-linecap:round;stroke-miterlimit:10;stroke-width:2px"/><line x1="393.2" y1="451.12" x2="436.91" y2="479.14" style="fill:none;stroke:#000;stroke-linecap:round;stroke-miterlimit:10;stroke-width:2px"/><path d="M478.92,264c-.18,5.44-.1,24.48-1,32.64" style="fill:none;stroke:#1f161e;stroke-linecap:round;stroke-miterlimit:10"/><path d="M578.63,504.79c0,2.62-1.54,19.15,1.52,20.67s36.72,2.45,38.25.92,2.45-4.74,1.11-5.66-14.37-3.51-16.14-4.74-4.21-7.74-3.32-11.19Z" style="fill:#1f161e"/><path d="M479.67,288.73l18.94-6.79c-.81-34.57-8.9-111.82-20.37-123.3-2.7-2.69-56.05-7.38-65.57-7.38-56.8,0-73.64,6.48-77.92,10.77-13.26,13.26-17.4,74.73-17.4,96.26S378.15,291,378.15,291l71.27,4.9s15.64,1.61,29.16,2.41C478.86,294.14,479.67,288.73,479.67,288.73Z" style="fill:#2093a7"/><path d="M534.38,308.78c5.18-1.54,56.74-9.95,68,1.1s46.58,169.56,46.58,173.21H620.48l-38.43-82.71Z" style="fill:#0c535f"/><path d="M347.78,294.68c-1.3,6.47-9.07,13.41-9.07,48.64,0,48.73,39.91,49.75,54.24,49.75,44.64,0,116.86-13.26,121.74-15.7,3.24,5.41,62.86,127.13,63.14,129.85h27.45s-17-182.1-47.72-202.75C547.59,297.84,370.67,290.75,347.78,294.68Z" style="fill:#55b79d"/><path d="M508.16,259.06c-7.21,0-13.16,1.72-29.48,4.92l-.85,31.21c15.48-6.23,19.08-14.9,23.56-14.9,11.22,0,17.07,5.78,23.69,5.78,4.62,0,12.94-3.62,12.94-8.55C538,267.2,517.09,259.06,508.16,259.06Z" style="fill:#f8cdba"/><path d="M621.81,480.9c0,2.63-1.53,19.15,1.53,20.68s36.72,2.45,38.25.92,2.45-4.74,1.11-5.66-14.38-3.53-16.14-4.75-4.22-7.74-3.32-11.19Z" style="fill:#1f161e"/><path d="M422.48,158.61c0,4.17-24.2,4.29-24.2,0V124.72h24.2Z" style="fill:#f8cdba"/><path d="M414.62,135.89c-2.21,0-16.32,6.23-16.32,9.72V127.22C401.82,127.22,414.62,135.89,414.62,135.89Z" style="fill:#1f161e"/><circle cx="419.24" cy="108.04" r="29.3" style="fill:#f8cdba"/><path d="M449.48,85c-3.63,5.76-11.22,8.4-19.42,8.4-7,0-17.19-2-24.45,2.1-3.92,2.22-8.42,7.25-9.33,17.32,0,1.72-2,8.41-2,10.57,0,1.47-1.65,2.43-4.42,2.43a5.79,5.79,0,0,1-4.24-5.84c0-4.08,1.63-5.53,1.63-9s-4.24-6.79-4.24-16.4c0-13.86,8.84-22.39,15.09-22.39,5.72,0,7.5,1.32,8.22,1.89,0-12.59,16.58-18.34,23.16-18.34,7.52,0,11.05,3.08,11.05,7,0,6.25-3,11.57-4.5,12.77a18.54,18.54,0,0,1,12.5-4.77c8.61,0,11.5,5.66,11.5,9.53,0,8.42-10.09,16.21-13.85,16.21a39.07,39.07,0,0,0-3.32-5.74Z" style="fill:#1f161e"/><circle cx="397.31" cy="111.9" r="6.25" style="fill:#f8cdba"/><ellipse cx="448.57" cy="110.89" rx="4.84" ry="2.52" style="fill:#fa9e9f"/><ellipse cx="418.33" cy="110.89" rx="4.84" ry="2.52" style="fill:#fa9e9f"/><path d="M436.81,105.66c.91,1.29,5.53,6.73.65,8.92" style="fill:none;stroke:#1f161e;stroke-linecap:round;stroke-miterlimit:10"/><path d="M427.79,120.91a8.21,8.21,0,0,1-4.89-3.43" style="fill:none;stroke:#1f161e;stroke-linecap:round;stroke-miterlimit:10"/><path d="M466.08,199.6c2.21,4.69,12.88,50,12.88,64.38" style="fill:none;stroke:#1f161e;stroke-linecap:round;stroke-miterlimit:10"/><path d="M317.32,254.64c0,50.95.47,65.74,20.92,65.74,47.14,0,118.41-38.7,131.11-38.7,11.22,0,17.08,5.8,23.7,5.8,4.61,0,12.92-3.64,12.92-8.56,0-10.34-20.92-18.47-29.85-18.47-20.08,0-100.25,19.37-102.2,19.37s-5.25-.85-5.25-4.14c0-6,3.92-19.8,4.43-21Z" style="fill:#f8cdba"/><path d="M384.88,210.2c-1.35,3.87-11.87,44-13.08,48.86" style="fill:none;stroke:#1f161e;stroke-linecap:round;stroke-miterlimit:10"/><path d="M787.91,524.37h0a5.65,5.65,0,0,1-6.91-4L724.46,305.07a5.66,5.66,0,0,1,4-6.91h0a5.67,5.67,0,0,1,6.92,4L792,517.46A5.66,5.66,0,0,1,787.91,524.37Z" style="fill:#969696"/><path d="M719.79,298.13h0a5.68,5.68,0,0,1,4,6.92L667.29,520.31a5.66,5.66,0,0,1-6.92,4h0a5.65,5.65,0,0,1-4-6.91l56.54-215.26A5.67,5.67,0,0,1,719.79,298.13Z" style="fill:#969696"/><path d="M642.88,298.13h0a5.66,5.66,0,0,1,4,6.92L590.37,520.31a5.65,5.65,0,0,1-6.91,4h0a5.66,5.66,0,0,1-4-6.91L636,302.17A5.66,5.66,0,0,1,642.88,298.13Z" style="fill:#d8d8d8"/><rect x="673.9" y="289.82" width="11.34" height="234.33" rx="5.67" transform="translate(-80.07 182.48) rotate(-14.45)" style="fill:#d8d8d8"/><path d="M327.27,298.14h0a5.65,5.65,0,0,1,4,6.91L274.76,520.31a5.66,5.66,0,0,1-6.91,4h0a5.66,5.66,0,0,1-4-6.91l56.54-215.26A5.67,5.67,0,0,1,327.27,298.14Z" style="fill:#969696"/><path d="M393.22,524.39h0a5.67,5.67,0,0,1-6.91-4L329.76,305.09a5.67,5.67,0,0,1,4-6.91h0a5.65,5.65,0,0,1,6.91,4l56.54,215.27A5.66,5.66,0,0,1,393.22,524.39Z" style="fill:#969696"/><rect x="210.67" y="287.51" width="553.01" height="16.75" rx="8.37" style="fill:#d8d8d8"/><path d="M246.37,298.14h0a5.68,5.68,0,0,1,4,6.92L193.86,520.32a5.65,5.65,0,0,1-6.91,4h0a5.65,5.65,0,0,1-4-6.91l56.54-215.26A5.67,5.67,0,0,1,246.37,298.14Z" style="fill:#d8d8d8"/><path d="M313.52,524.39h0a5.67,5.67,0,0,1-6.91-4L250.07,305.09a5.65,5.65,0,0,1,4-6.91h0a5.66,5.66,0,0,1,6.92,4l56.54,215.27A5.67,5.67,0,0,1,313.52,524.39Z" style="fill:#d8d8d8"/><path d="M617.5,287.51H515.23l18.52-63.72a7.46,7.46,0,0,1,7.17-5.31H627.7a7.33,7.33,0,0,1,7.44,7.2,7.43,7.43,0,0,1-.27,2.1Z"/><circle cx="579.03" cy="252.99" r="6.26" style="fill:#fff"/><rect x="456.37" y="283.03" width="71.76" height="4.48"/><rect x="606.83" y="99.55" width="12.42" height="33.85" rx="6.21"/><circle cx="613.04" cy="156.96" r="12.46" style="fill:#fbdc8e"/><path d="M613,119.41A37.55,37.55,0,0,0,575.47,157H650.6A37.56,37.56,0,0,0,613,119.41Z" style="fill:#2093a7"/><path d="M614,21.37V106.7a1,1,0,1,1-2,0V20.56Z"/><path d="M1.06,341.18c-8.3,37.73,34.25,26.46,56.13,37.12s15.91,24.89,8.29,43.47,29.67,76.61,117,53.39l47.18-80.91s-33.16-64.25-86.2-80.58C100.3,300.39,9,305,1.06,341.18Z" style="fill:#fdd89c"/><path d="M202.06,437.77a1,1,0,0,1-.87-.53c-29.26-55.49-64.7-89.49-105.32-101.08A113,113,0,0,0,14.22,344a1,1,0,0,1-1-1.71,114.9,114.9,0,0,1,83.16-8c41.2,11.73,77,46.08,106.57,102.07a1,1,0,0,1-.41,1.35h0A1.13,1.13,0,0,1,202.06,437.77Z" style="fill:#fff"/><path d="M77.88,356.43a1,1,0,0,1-.93-.66,1,1,0,0,1,.57-1.26h0c1.41-.52,34.72-12.49,59.59,0a1,1,0,1,1-.84,1.79l-.05,0c-24.12-12.15-57.69-.08-58,0A.77.77,0,0,1,77.88,356.43Z" style="fill:#fff"/><path d="M168.75,384.81a1.34,1.34,0,0,1-.44-.1,1,1,0,0,1-.46-1.33h0c6-12.09-3.78-51.87-3.87-52.27a1,1,0,0,1,.72-1.21,1,1,0,0,1,1.21.71c.41,1.68,10.07,40.9,3.74,53.65A1,1,0,0,1,168.75,384.81Z" style="fill:#fff"/><path d="M190,416.63a.86.86,0,0,1-.51-.16c-29-18-55.14-21-71.95-20.25a89.3,89.3,0,0,0-29.83,5.91,1,1,0,1,1-.81-1.81c.45-.22,47.17-20.63,103.64,14.46a1,1,0,0,1,.32,1.37A1.06,1.06,0,0,1,190,416.63Z" style="fill:#fff"/><path d="M123,347.59a1,1,0,0,1-.7-.28c-16.13-15.67-11.83-33.89-11.77-34.07a1,1,0,0,1,1.19-.72h0a1,1,0,0,1,.74,1.19c0,.18-4,17.33,11.23,32.16a1,1,0,0,1,0,1.42A1.18,1.18,0,0,1,123,347.59Z" style="fill:#fff"/><path d="M244.83,383.17c31.11,3,25.56,97.64-34.16,91.91C154.27,469.62,206.87,379.49,244.83,383.17Z" style="fill:#f5f5ee"/><path d="M215,528.76H177.52a6.1,6.1,0,0,1-6.09-5.45l-4.73-42.44a6.14,6.14,0,0,1,5.37-6.83,5.79,5.79,0,0,1,.72,0H219.5a6.11,6.11,0,0,1,6.12,6.11c0,.23,0,.45,0,.68l-4.52,42.44A6.14,6.14,0,0,1,215,528.76Z" style="fill:#969696"/><path d="M233.13,354.49c14.2,4.11,3.32,90-23.86,82.05C183.62,429.09,215.86,349.47,233.13,354.49Z" style="fill:#ab8de5"/><path d="M255.13,407.4c9.81,8.45-30.08,73.12-48.93,56.88C188.4,449,243.15,397.12,255.13,407.4Z" style="fill:#fdd89c"/><path d="M196.34,332.63c21.24,0,40.69,135.64,0,135.64C157.91,468.27,170.48,332.63,196.34,332.63Z" style="fill:#2093a7"/><rect x="154.91" y="464.82" width="82.68" height="15.18" rx="7.59" style="fill:#d8d8d8"/></g></g></svg>