<svg xmlns="http://www.w3.org/2000/svg" width="19.96" height="19.965" viewBox="0 0 19.96 19.965"><defs><style>.a{fill:#484848;}</style></defs><path class="a" d="M22.812,14.48a2.568,2.568,0,0,1,1.648-2.4,10.181,10.181,0,0,0-1.232-2.968,2.6,2.6,0,0,1-1.045.224,2.563,2.563,0,0,1-2.344-3.607A10.15,10.15,0,0,0,16.876,4.5a2.566,2.566,0,0,1-4.793,0A10.181,10.181,0,0,0,9.116,5.732,2.563,2.563,0,0,1,6.772,9.339a2.518,2.518,0,0,1-1.045-.224A10.406,10.406,0,0,0,4.5,12.089a2.568,2.568,0,0,1,.005,4.792,10.181,10.181,0,0,0,1.232,2.968,2.564,2.564,0,0,1,3.384,3.384,10.24,10.24,0,0,0,2.968,1.232,2.562,2.562,0,0,1,4.782,0,10.181,10.181,0,0,0,2.968-1.232,2.566,2.566,0,0,1,3.384-3.384,10.24,10.24,0,0,0,1.232-2.968A2.581,2.581,0,0,1,22.812,14.48Zm-8.286,4.153a4.158,4.158,0,1,1,4.158-4.158A4.157,4.157,0,0,1,14.527,18.633Z" transform="translate(-4.5 -4.5)"/></svg>