<svg xmlns="http://www.w3.org/2000/svg" viewBox="0 0 366.62 394.31"><defs><style>.cls-1{fill:#fdd89c;}.cls-2{fill:#f5f5ee;}</style></defs><title>Fichier 1</title><g id="Calque_2" data-name="Calque 2"><g id="Calque_1-2" data-name="Calque 1"><polygon class="cls-1" points="202.8 297.73 202.8 315.23 17.5 315.23 0 297.73 202.8 297.73"/><path class="cls-2" d="M268.93.26,257.5,16,269,.26Z"/><polygon class="cls-2" points="349.12 226.73 349.12 297.73 287.79 297.73 287.79 376.81 202.8 376.81 202.8 297.73 0 297.73 0 239.1 177.52 0.26 268.93 0.26 257.5 16.03 256.24 17.76 256.07 18 104.36 226.73 205.49 226.73 205.49 156.26 287.79 156.26 287.79 226.73 349.12 226.73"/><polygon class="cls-1" points="305.29 173.76 305.29 226.73 287.79 226.73 287.79 156.26 305.29 173.76"/><polygon class="cls-1" points="286.46 17.76 134.58 226.73 104.36 226.73 256.07 18 256.24 17.76 257.5 16.03 268.96 0.26 268.93 0.26 269.12 0 285.89 17.76 286.46 17.76"/><polygon class="cls-2" points="268.96 0.26 257.5 16.03 268.93 0.26 268.96 0.26"/><polygon class="cls-1" points="366.62 244.23 366.62 315.23 305.29 315.23 305.29 394.31 220.3 394.31 202.8 376.81 287.79 376.81 287.79 297.73 349.12 297.73 349.12 226.73 366.62 244.23"/></g></g></svg>