<svg xmlns="http://www.w3.org/2000/svg" viewBox="0 0 219.96 512"><title>Fichier 1</title><g id="Calque_2" data-name="Calque 2"><g id="Layer_1" data-name="Layer 1"><path d="M220,256.3q0,2.42-.09,4.8c-1.61,47.73-27.27,88.53-63.74,107.51q-4.11,2.14-8.4,3.91a98.47,98.47,0,0,1-26,6.81l-24.18-.09a98.17,98.17,0,0,1-25.32-6.72q-4.29-1.75-8.4-3.91C27.35,349.63,1.7,308.83.09,261.1Q0,258.71,0,256.3C0,156.87,49.23,0,110,0S220,156.87,220,256.3Z" style="fill:#181a1e"/><path d="M157.78,379.84l-1.65.88q-4.11,2.14-8.4,3.91a98.47,98.47,0,0,1-26,6.81l-24.18-.09a98.17,98.17,0,0,1-25.32-6.72q-4.29-1.75-8.4-3.91l-1.65-.88,1.65-11.23q4.11,2.14,8.4,3.91a98.17,98.17,0,0,0,25.32,6.72l24.18.09a98.47,98.47,0,0,0,26-6.81q4.29-1.75,8.4-3.91Z" style="fill:#25272b"/><path d="M170,462.6H50l12.19-82.76,1.65.88q4.11,2.14,8.4,3.91a98.17,98.17,0,0,0,25.32,6.72l24.18.09a98.47,98.47,0,0,0,26-6.81q4.29-1.75,8.4-3.91l1.65-.88Z" style="fill:#181a1e"/><rect y="462.6" width="219.96" height="49.4" rx="12.81" style="fill:#25272b"/><path d="M146.12,44.49c-28.88,40-56.93,64.2-110.91,81.37C51.67,69.54,78.77,21.24,109.4,21.24,122.47,21.24,134.9,30,146.12,44.49Z" style="fill:#25272b"/></g></g></svg>